<svg xmlns="http://www.w3.org/2000/svg" xmlns:xlink="http://www.w3.org/1999/xlink" version="1.1" width="358" height="48" style="enable-background:new -212 296 375 93;" xml:space="preserve"><rect id="backgroundrect" width="100%" height="100%" x="0" y="0" fill="none" stroke="none" class="" style=""/>
<style type="text/css">
	.st0{fill:#6D6E71;}
</style>




















<g class="currentLayer" style=""><title>Layer 1</title><polyline class="st0" points="10.50000000745058,18.60001277923584 28.899993903934956,18.60001277923584 28.899993903934956,26.500006675720215 10.50000000745058,26.500006675720215 10.50000000745058,47.19998836517334 0,47.19998836517334 0,1.1999883651733398 35.50000000745058,1.1999883651733398 35.50000000745058,8.799994468688965 10.50000000745058,8.799994468688965 10.50000000745058,18.60001277923584 " id="svg_1"/><polyline class="st0" points="55.19999695569277,39.60001277923584 82.59999085217714,39.60001277923584 82.59999085217714,47.19998836517334 44.19999695569277,47.19998836517334 44.19999695569277,1.1999883651733398 55.19999695569277,1.1999883651733398 55.19999695569277,39.60001277923584 " id="svg_2"/><path class="st0" d="M96.09999390393496,24.000000572204613 c0,5.3 1.5,9.4 4.5,12.2 c3.1,2.9 6.6,4.3 10.5,4.4 c2.4,0.1 4.7,-0.4 7.1,-1.6 c2.4,-1.2 4.3,-3 5.7,-5.5 c1.5,-2.5 2.2,-5.7 2.2,-9.5 c0,-4 -0.8,-7.2 -2.3,-9.7 c-1.5,-2.5 -3.3,-4.2 -5.6,-5.3 c-2.3,-1.1 -4.6,-1.7000000000000002 -7.1,-1.7000000000000002 c-4,0 -7.5,1.4 -10.5,4.1 C97.59999390393496,14.200000572204601 96.09999390393496,18.40000057220459 96.09999390393496,24.000000572204613 M84.89999390393496,24.2000005722046 c0,-6.5 2.3,-12.2 7,-17 c4.7,-4.8 11.3,-7.2 19.8,-7.2 c5.5,0 10.3,1.1 14.3,3.3 c4.1,2.2 7.1,5.1 9.2,8.8 c2.1,3.7 3.1,7.7 3.1,12 c0,4.3 -1,8.3 -3.2,12 c-2.1,3.7 -5.1,6.6 -9.2,8.8 c-4,2.2 -8.8,3.3 -14.2,3.3 c-8.5,0 -15.1,-2.4 -19.8,-7.1 C87.19999390393495,36.30000057220457 84.89999390393496,30.7000005722046 84.89999390393496,24.2000005722046 z" id="svg_3"/><path class="st0" d="M141.29999390393496,40.60000057220458 l5.8,-6 c3.3,3.4 7.1,5.3 11.4,5.9 c2.4,0.3000000000000001 4.5,0 6.3,-1 c1.8,-0.9 2.7,-2.2 2.7,-3.8 c0,-1.7000000000000002 -1.1,-3.3 -3.2,-4.9 c-0.3000000000000001,-0.3000000000000001 -0.8,-0.6000000000000002 -1.4,-1 c-0.6000000000000002,-0.4 -1.2,-0.7000000000000002 -1.8,-1 c-0.5,-0.3000000000000001 -2.2,-1.3 -5.1,-3.1 c-2.9,-1.7000000000000002 -5.1,-3.2 -6.6,-4.4 c-1.5,-1.2 -2.8,-2.6 -3.8,-4.1 c-1,-1.5 -1.5,-3.2 -1.5,-5.1 c0,-1.9 0.5,-3.7 1.6,-5.5 c1.1,-1.8 2.9,-3.3 5.3,-4.5 c2.5,-1.2 5.6,-1.9 9.4,-2 c5.8,-0.1 11.2,1.6 16.2,5.2 l-5.5,5.4 c-3.4,-2.7 -7.1,-3.8 -11.2,-3.4 c-2.1,0.2 -3.5,0.7000000000000002 -4.4,1.7000000000000002 c-0.8,0.9 -1.2,1.9 -1.1,2.9 c0.2,0.9 0.8,1.7000000000000002 1.9,2.6 c1.1,0.8 2.7,1.8 4.9,3.1 c3.4,2 5.8,3.4 7.2,4.2 s2.7,1.8 4.1,3 c3.4,2.8 5.1,6 5.3,9.5 c0.1,2.3 -0.5,4.6 -1.8,6.7 s-3.3,3.9 -6,5.2 c-2.6,1.3 -5.8,2 -9.5,2 C153.39999390393496,48.50000057220461 147.09999390393494,46.00000057220461 141.29999390393496,40.60000057220458 " id="svg_4"/><polyline class="st0" points="222.89999390393496,39.60001277923584 250.3000030592084,39.60001277923584 250.3000030592084,47.19998836517334 212.00000000745058,47.19998836517334 212.00000000745058,1.1999883651733398 222.89999390393496,1.1999883651733398 222.89999390393496,39.60001277923584 " id="svg_5"/><polyline class="st0" points="271.0000000074506,18.40000057220459 290.0000000074506,18.40000057220459 290.0000000074506,26.19998836517334 271.0000000074506,26.19998836517334 271.0000000074506,39.60001277923584 298.6999816969037,39.60001277923584 298.6999816969037,47.19998836517334 259.89999390393496,47.19998836517334 259.89999390393496,1.1999883651733398 296.5000000074506,1.1999883651733398 296.5000000074506,8.799994468688965 271.0000000074506,8.799994468688965 271.0000000074506,18.40000057220459 " id="svg_6"/><polyline class="st0" points="318.1000061109662,22.10001277923584 339.0000000074506,1.1999883651733398 351.6999816969037,1.1999883651733398 331.1000061109662,22.299994468688965 357.5000000074506,47.19998836517334 343.79998780041933,47.19998836517334 318.1000061109662,23.299994468688965 318.1000061109662,47.19998836517334 307.0000000074506,47.19998836517334 307.0000000074506,1.1999883651733398 318.1000061109662,1.1999883651733398 318.1000061109662,22.10001277923584 " id="svg_7"/><path class="st0" d="M184.39999390393496,26.7000005722046 c1.8,-1.7000000000000002 14.3,-11.3 14.3,-11.3 s-5.8,3.1 -9.6,5.2 c-5.1,2.8 -9.2,7.6 -9.2,7.6 c-3.9,-7.6 7.1,-15.4 19.1,-16.9 c5.1,-0.6000000000000002 7.7,-3.2 11.3,-3.6 c-8.5,6.2 -6.8,16.6 -17.2,22.6 c-3,1.4 -8.2,3.2 -11.5,0.6000000000000002 C181.49999390393495,30.90000057220459 182.29999390393496,28.7000005722046 184.39999390393496,26.7000005722046 " id="svg_8"/></g></svg>